<svg width="24px" height="24px" viewBox="0 0 373 350" fill="none" xmlns="http://www.w3.org/2000/svg">
<path d="M61.0191 131.798C105.232 54.4612 127.338 15.7929 157.35 5.04029C176.108 -1.6801 196.601 -1.6801 215.359 5.04029C245.37 15.7929 267.477 54.4612 311.689 131.798C355.619 208.638 377.583 247.059 371.797 278.438C368.179 298.053 357.949 315.818 342.825 328.741C318.632 349.414 274.539 349.414 186.354 349.414C98.1688 349.414 54.0761 349.414 29.8837 328.741C14.7603 315.818 4.52899 298.053 0.911624 278.438C-4.875 247.059 17.0897 208.638 61.0191 131.798Z" fill="#FA5B30"/>
<path d="M248.102 243.575C226.742 277.815 216.062 294.936 201.886 300.096C191.882 303.736 180.826 303.736 170.823 300.096C156.647 294.936 145.966 277.815 124.607 243.575C102.346 207.89 91.2156 190.048 93.4612 175.397C95.0441 165.073 100.624 155.692 109.099 149.108C121.124 139.766 142.867 139.766 186.354 139.766C229.842 139.766 251.584 139.766 263.61 149.108C272.085 155.692 277.665 165.073 279.248 175.397C281.493 190.048 270.362 207.89 248.102 243.575Z" fill="white"/>
</svg>
